<svg xmlns="http://www.w3.org/2000/svg" viewBox="0 0 1600 860" preserveAspectRatio="xMidYMid slice">
<defs>
  <filter id="w10" x="-40%" y="-40%" width="180%" height="180%"><feGaussianBlur stdDeviation="10"/></filter>
  <filter id="w18" x="-50%" y="-50%" width="200%" height="200%"><feGaussianBlur stdDeviation="18"/></filter>
  <filter id="w30" x="-60%" y="-60%" width="220%" height="220%"><feGaussianBlur stdDeviation="30"/></filter>
</defs>

<!-- Paper -->
<rect width="1600" height="860" fill="#F4EDE0"/>

<!-- ═══ WATERCOLOR WASHES — gray only, blurred ═══ -->
<!-- Ground pool -->
<ellipse cx="950" cy="690" rx="560" ry="68" fill="#B8B4AE" opacity="0.38" filter="url(#w18)"/>
<!-- Drip blobs below house -->
<ellipse cx="840" cy="718" rx="88"  ry="22" fill="#ACA8A2" opacity="0.30" filter="url(#w10)"/>
<ellipse cx="1060" cy="712" rx="72" ry="18" fill="#ACA8A2" opacity="0.26" filter="url(#w10)"/>
<ellipse cx="950"  cy="730" rx="50" ry="14" fill="#A8A4A0" opacity="0.22" filter="url(#w10)"/>
<!-- Under-eave shadow wash -->
<ellipse cx="950" cy="370" rx="460" ry="30" fill="#ACA8A2" opacity="0.22" filter="url(#w18)"/>
<!-- Right wall shadow -->
<ellipse cx="1320" cy="510" rx="120" ry="200" fill="#A8A4A0" opacity="0.16" filter="url(#w18)"/>
<!-- Porch shadow -->
<ellipse cx="950" cy="600" rx="190" ry="65" fill="#9A9690" opacity="0.20" filter="url(#w10)"/>
<!-- Tree shadow washes -->
<ellipse cx="208" cy="510" rx="220" ry="260" fill="#AEAAA6" opacity="0.18" filter="url(#w30)"/>
<ellipse cx="1505" cy="420" rx="260" ry="255" fill="#AEAAA6" opacity="0.16" filter="url(#w30)"/>
<!-- Couple ground shadow -->
<ellipse cx="654" cy="674" rx="84" ry="20" fill="#A8A4A0" opacity="0.28" filter="url(#w10)"/>
<!-- Atmospheric horizon mist -->
<rect x="0" y="590" width="1600" height="80" fill="#C4C0BA" opacity="0.10" filter="url(#w18)"/>

<!-- ═══ LINEWORK ═══════════════════════════════════════════════════════ -->

<!-- ── Sky / atmosphere – faint horizon lines ── -->
<line x1="300"  y1="545" x2="540"  y2="542" stroke="#8A8680" stroke-width="0.4" opacity="0.35"/>
<line x1="1100" y1="548" x2="1340" y2="545" stroke="#8A8680" stroke-width="0.4" opacity="0.30"/>
<line x1="380"  y1="555" x2="500"  y2="553" stroke="#8A8680" stroke-width="0.3" opacity="0.28"/>

<!-- ── Ground line ── -->
<path d="M320,660 Q950,658 1560,661"          stroke="#2A2826" stroke-width="1.2" fill="none" opacity="0.7"/>
<path d="M380,664 Q700,663 950,662 Q1200,663 1520,665" stroke="#3A3632" stroke-width="0.5" fill="none" opacity="0.45"/>

<!-- ════════════════════════════════════════════════════════════════════
     ROOF
════════════════════════════════════════════════════════════════════ -->
<!-- Main gable outline -->
<path d="M476,360 L950,188 L1424,360"         stroke="#2A2826" stroke-width="2.0" fill="none" stroke-linejoin="round"/>
<path d="M480,363 L952,192 L1420,363"         stroke="#2A2826" stroke-width="0.5" fill="none" stroke-linejoin="round" opacity="0.4"/>
<!-- Eave line -->
<line x1="476" y1="360" x2="1424" y2="360"   stroke="#2A2826" stroke-width="1.6"/>
<line x1="476" y1="364" x2="1424" y2="364"   stroke="#2A2826" stroke-width="0.5" opacity="0.45"/>
<!-- Fascia shadow under eave -->
<line x1="476" y1="368" x2="1424" y2="368"   stroke="#3A3632" stroke-width="0.4" opacity="0.50"/>

<!-- Left slope shingle hatching — lines parallel to left slope -->
<line x1="510" y1="358" x2="572"  y2="336"   stroke="#3A3632" stroke-width="0.4" opacity="0.55"/>
<line x1="548" y1="358" x2="626"  y2="330"   stroke="#3A3632" stroke-width="0.4" opacity="0.55"/>
<line x1="586" y1="358" x2="676"  y2="324"   stroke="#3A3632" stroke-width="0.4" opacity="0.55"/>
<line x1="624" y1="358" x2="726"  y2="320"   stroke="#3A3632" stroke-width="0.4" opacity="0.50"/>
<line x1="662" y1="358" x2="774"  y2="314"   stroke="#3A3632" stroke-width="0.4" opacity="0.50"/>
<line x1="700" y1="356" x2="810"  y2="310"   stroke="#3A3632" stroke-width="0.35" opacity="0.48"/>
<line x1="740" y1="354" x2="852"  y2="305"   stroke="#3A3632" stroke-width="0.35" opacity="0.45"/>
<line x1="778" y1="352" x2="890"  y2="300"   stroke="#3A3632" stroke-width="0.35" opacity="0.45"/>
<line x1="816" y1="350" x2="924"  y2="296"   stroke="#3A3632" stroke-width="0.35" opacity="0.40"/>
<line x1="854" y1="348" x2="950"  y2="291"   stroke="#3A3632" stroke-width="0.3"  opacity="0.40"/>
<line x1="892" y1="346" x2="950"  y2="286"   stroke="#3A3632" stroke-width="0.3"  opacity="0.35"/>

<!-- Right slope shingle hatching -->
<line x1="1390" y1="358" x2="1328" y2="336"  stroke="#3A3632" stroke-width="0.4" opacity="0.55"/>
<line x1="1352" y1="358" x2="1274" y2="330"  stroke="#3A3632" stroke-width="0.4" opacity="0.55"/>
<line x1="1314" y1="358" x2="1224" y2="324"  stroke="#3A3632" stroke-width="0.4" opacity="0.55"/>
<line x1="1276" y1="358" x2="1174" y2="320"  stroke="#3A3632" stroke-width="0.4" opacity="0.50"/>
<line x1="1238" y1="358" x2="1126" y2="314"  stroke="#3A3632" stroke-width="0.4" opacity="0.50"/>
<line x1="1200" y1="356" x2="1090" y2="310"  stroke="#3A3632" stroke-width="0.35" opacity="0.48"/>
<line x1="1160" y1="354" x2="1048" y2="305"  stroke="#3A3632" stroke-width="0.35" opacity="0.45"/>
<line x1="1122" y1="352" x2="1010" y2="300"  stroke="#3A3632" stroke-width="0.35" opacity="0.45"/>
<line x1="1084" y1="350" x2="976"  y2="296"  stroke="#3A3632" stroke-width="0.35" opacity="0.40"/>
<line x1="1046" y1="348" x2="950"  y2="291"  stroke="#3A3632" stroke-width="0.3"  opacity="0.40"/>
<line x1="1008" y1="346" x2="950"  y2="286"  stroke="#3A3632" stroke-width="0.3"  opacity="0.35"/>

<!-- Ridge cap lines -->
<line x1="950" y1="188" x2="950" y2="196"    stroke="#2A2826" stroke-width="1.2" opacity="0.6"/>
<line x1="946" y1="192" x2="954" y2="192"    stroke="#2A2826" stroke-width="0.8" opacity="0.5"/>

<!-- ════════════════════════════════════════════════════════════════════
     HOUSE WALLS
════════════════════════════════════════════════════════════════════ -->
<!-- Main wall outline -->
<rect x="562" y="360" width="776" height="300" stroke="#2A2826" stroke-width="1.8" fill="none"/>
<!-- Second pass for sketch feel -->
<path d="M562,360 L562,660"                   stroke="#2A2826" stroke-width="0.5" opacity="0.4"/>
<path d="M1338,360 L1338,660"                 stroke="#2A2826" stroke-width="0.5" opacity="0.4"/>

<!-- Horizontal siding lines — very fine -->
<line x1="563" y1="374" x2="1337" y2="374"   stroke="#4A4642" stroke-width="0.3" opacity="0.40"/>
<line x1="563" y1="388" x2="1337" y2="388"   stroke="#4A4642" stroke-width="0.3" opacity="0.40"/>
<line x1="563" y1="402" x2="1337" y2="402"   stroke="#4A4642" stroke-width="0.3" opacity="0.38"/>
<line x1="563" y1="416" x2="1337" y2="416"   stroke="#4A4642" stroke-width="0.3" opacity="0.38"/>
<line x1="563" y1="430" x2="1337" y2="430"   stroke="#4A4642" stroke-width="0.3" opacity="0.38"/>
<line x1="563" y1="444" x2="1337" y2="444"   stroke="#4A4642" stroke-width="0.3" opacity="0.35"/>
<line x1="563" y1="458" x2="1337" y2="458"   stroke="#4A4642" stroke-width="0.3" opacity="0.35"/>
<!-- Cornice / floor divider -->
<line x1="562" y1="474" x2="1338" y2="474"   stroke="#2A2826" stroke-width="1.2"/>
<line x1="562" y1="478" x2="1338" y2="478"   stroke="#3A3632" stroke-width="0.5" opacity="0.45"/>
<!-- Lower siding -->
<line x1="563" y1="492" x2="1337" y2="492"   stroke="#4A4642" stroke-width="0.3" opacity="0.35"/>
<line x1="563" y1="508" x2="755"  y2="508"   stroke="#4A4642" stroke-width="0.3" opacity="0.32"/>
<line x1="1145" y1="508" x2="1337" y2="508"  stroke="#4A4642" stroke-width="0.3" opacity="0.32"/>
<line x1="563" y1="524" x2="755"  y2="524"   stroke="#4A4642" stroke-width="0.3" opacity="0.30"/>
<line x1="1145" y1="524" x2="1337" y2="524"  stroke="#4A4642" stroke-width="0.3" opacity="0.30"/>
<line x1="563" y1="540" x2="708"  y2="540"   stroke="#4A4642" stroke-width="0.3" opacity="0.28"/>
<line x1="1192" y1="540" x2="1337" y2="540"  stroke="#4A4642" stroke-width="0.3" opacity="0.28"/>
<line x1="563" y1="556" x2="708"  y2="556"   stroke="#4A4642" stroke-width="0.3" opacity="0.28"/>
<line x1="1192" y1="556" x2="1337" y2="556"  stroke="#4A4642" stroke-width="0.3" opacity="0.28"/>
<line x1="563" y1="572" x2="708"  y2="572"   stroke="#4A4642" stroke-width="0.3" opacity="0.26"/>
<line x1="1192" y1="572" x2="1337" y2="572"  stroke="#4A4642" stroke-width="0.3" opacity="0.26"/>
<line x1="563" y1="588" x2="708"  y2="588"   stroke="#4A4642" stroke-width="0.3" opacity="0.25"/>
<line x1="1192" y1="588" x2="1337" y2="588"  stroke="#4A4642" stroke-width="0.3" opacity="0.25"/>
<line x1="563" y1="604" x2="708"  y2="604"   stroke="#4A4642" stroke-width="0.3" opacity="0.24"/>
<line x1="1192" y1="604" x2="1337" y2="604"  stroke="#4A4642" stroke-width="0.3" opacity="0.24"/>
<line x1="563" y1="620" x2="708"  y2="620"   stroke="#4A4642" stroke-width="0.3" opacity="0.22"/>
<line x1="1192" y1="620" x2="1337" y2="620"  stroke="#4A4642" stroke-width="0.3" opacity="0.22"/>
<line x1="563" y1="636" x2="708"  y2="636"   stroke="#4A4642" stroke-width="0.3" opacity="0.20"/>
<line x1="1192" y1="636" x2="1337" y2="636"  stroke="#4A4642" stroke-width="0.3" opacity="0.20"/>
<line x1="563" y1="652" x2="708"  y2="652"   stroke="#4A4642" stroke-width="0.3" opacity="0.18"/>
<line x1="1192" y1="652" x2="1337" y2="652"  stroke="#4A4642" stroke-width="0.3" opacity="0.18"/>

<!-- Right wall shadow hatching (diagonal) -->
<line x1="1250" y1="362" x2="1336" y2="420"  stroke="#4A4642" stroke-width="0.35" opacity="0.30"/>
<line x1="1270" y1="362" x2="1336" y2="408"  stroke="#4A4642" stroke-width="0.35" opacity="0.28"/>
<line x1="1290" y1="362" x2="1336" y2="396"  stroke="#4A4642" stroke-width="0.35" opacity="0.28"/>
<line x1="1310" y1="362" x2="1336" y2="384"  stroke="#4A4642" stroke-width="0.35" opacity="0.25"/>

<!-- ════════════════════════════════════════════════════════════════════
     WINDOWS
════════════════════════════════════════════════════════════════════ -->

<!-- Second floor left window -->
<rect x="633" y="382" width="48" height="72"  stroke="#2A2826" stroke-width="1.2" fill="none"/>
<!-- Panes -->
<line x1="657" y1="383" x2="657" y2="453"    stroke="#2A2826" stroke-width="0.8"/>
<line x1="634" y1="418" x2="680" y2="418"    stroke="#2A2826" stroke-width="0.8"/>
<!-- Sill -->
<line x1="621" y1="455" x2="695" y2="455"    stroke="#2A2826" stroke-width="1.1"/>
<line x1="625" y1="459" x2="691" y2="459"    stroke="#3A3632" stroke-width="0.4" opacity="0.40"/>
<!-- Left shutter -->
<rect x="609" y="382" width="22" height="72"  stroke="#2A2826" stroke-width="0.9" fill="none"/>
<line x1="610" y1="394" x2="630" y2="394"    stroke="#3A3632" stroke-width="0.35" opacity="0.45"/>
<line x1="610" y1="406" x2="630" y2="406"    stroke="#3A3632" stroke-width="0.35" opacity="0.45"/>
<line x1="610" y1="418" x2="630" y2="418"    stroke="#3A3632" stroke-width="0.35" opacity="0.40"/>
<line x1="610" y1="430" x2="630" y2="430"    stroke="#3A3632" stroke-width="0.35" opacity="0.40"/>
<line x1="610" y1="442" x2="630" y2="442"    stroke="#3A3632" stroke-width="0.35" opacity="0.38"/>
<!-- Right shutter -->
<rect x="683" y="382" width="22" height="72"  stroke="#2A2826" stroke-width="0.9" fill="none"/>
<line x1="684" y1="394" x2="704" y2="394"    stroke="#3A3632" stroke-width="0.35" opacity="0.45"/>
<line x1="684" y1="406" x2="704" y2="406"    stroke="#3A3632" stroke-width="0.35" opacity="0.45"/>
<line x1="684" y1="418" x2="704" y2="418"    stroke="#3A3632" stroke-width="0.35" opacity="0.40"/>
<line x1="684" y1="430" x2="704" y2="430"    stroke="#3A3632" stroke-width="0.35" opacity="0.40"/>
<line x1="684" y1="442" x2="704" y2="442"    stroke="#3A3632" stroke-width="0.35" opacity="0.38"/>

<!-- Second floor right window -->
<rect x="1219" y="382" width="48" height="72" stroke="#2A2826" stroke-width="1.2" fill="none"/>
<!-- Panes -->
<line x1="1243" y1="383" x2="1243" y2="453"  stroke="#2A2826" stroke-width="0.8"/>
<line x1="1220" y1="418" x2="1266" y2="418"  stroke="#2A2826" stroke-width="0.8"/>
<!-- Sill -->
<line x1="1207" y1="455" x2="1281" y2="455"  stroke="#2A2826" stroke-width="1.1"/>
<line x1="1211" y1="459" x2="1277" y2="459"  stroke="#3A3632" stroke-width="0.4" opacity="0.40"/>
<!-- Left shutter -->
<rect x="1195" y="382" width="22" height="72" stroke="#2A2826" stroke-width="0.9" fill="none"/>
<line x1="1196" y1="394" x2="1216" y2="394"  stroke="#3A3632" stroke-width="0.35" opacity="0.45"/>
<line x1="1196" y1="406" x2="1216" y2="406"  stroke="#3A3632" stroke-width="0.35" opacity="0.45"/>
<line x1="1196" y1="418" x2="1216" y2="418"  stroke="#3A3632" stroke-width="0.35" opacity="0.40"/>
<line x1="1196" y1="430" x2="1216" y2="430"  stroke="#3A3632" stroke-width="0.35" opacity="0.40"/>
<line x1="1196" y1="442" x2="1216" y2="442"  stroke="#3A3632" stroke-width="0.35" opacity="0.38"/>
<!-- Right shutter -->
<rect x="1269" y="382" width="22" height="72" stroke="#2A2826" stroke-width="0.9" fill="none"/>
<line x1="1270" y1="394" x2="1290" y2="394"  stroke="#3A3632" stroke-width="0.35" opacity="0.45"/>
<line x1="1270" y1="406" x2="1290" y2="406"  stroke="#3A3632" stroke-width="0.35" opacity="0.45"/>
<line x1="1270" y1="418" x2="1290" y2="418"  stroke="#3A3632" stroke-width="0.35" opacity="0.40"/>
<line x1="1270" y1="430" x2="1290" y2="430"  stroke="#3A3632" stroke-width="0.35" opacity="0.40"/>
<line x1="1270" y1="442" x2="1290" y2="442"  stroke="#3A3632" stroke-width="0.35" opacity="0.38"/>

<!-- First floor left window -->
<rect x="631" y="496" width="52" height="112" stroke="#2A2826" stroke-width="1.2" fill="none"/>
<!-- Panes: vertical + 2 horizontals (6-pane) -->
<line x1="657" y1="497" x2="657" y2="607"    stroke="#2A2826" stroke-width="0.8"/>
<line x1="632" y1="533" x2="682" y2="533"    stroke="#2A2826" stroke-width="0.7"/>
<line x1="632" y1="570" x2="682" y2="570"    stroke="#2A2826" stroke-width="0.7"/>
<!-- Sill -->
<line x1="617" y1="610" x2="697" y2="610"    stroke="#2A2826" stroke-width="1.2"/>
<line x1="621" y1="614" x2="693" y2="614"    stroke="#3A3632" stroke-width="0.4" opacity="0.40"/>
<!-- Left shutter -->
<rect x="605" y="496" width="24" height="112" stroke="#2A2826" stroke-width="0.9" fill="none"/>
<line x1="606" y1="510" x2="628" y2="510"    stroke="#3A3632" stroke-width="0.35" opacity="0.45"/>
<line x1="606" y1="524" x2="628" y2="524"    stroke="#3A3632" stroke-width="0.35" opacity="0.45"/>
<line x1="606" y1="538" x2="628" y2="538"    stroke="#3A3632" stroke-width="0.35" opacity="0.40"/>
<line x1="606" y1="552" x2="628" y2="552"    stroke="#3A3632" stroke-width="0.35" opacity="0.40"/>
<line x1="606" y1="566" x2="628" y2="566"    stroke="#3A3632" stroke-width="0.35" opacity="0.38"/>
<line x1="606" y1="580" x2="628" y2="580"    stroke="#3A3632" stroke-width="0.35" opacity="0.36"/>
<line x1="606" y1="594" x2="628" y2="594"    stroke="#3A3632" stroke-width="0.35" opacity="0.34"/>
<!-- Right shutter -->
<rect x="685" y="496" width="24" height="112" stroke="#2A2826" stroke-width="0.9" fill="none"/>
<line x1="686" y1="510" x2="708" y2="510"    stroke="#3A3632" stroke-width="0.35" opacity="0.45"/>
<line x1="686" y1="524" x2="708" y2="524"    stroke="#3A3632" stroke-width="0.35" opacity="0.45"/>
<line x1="686" y1="538" x2="708" y2="538"    stroke="#3A3632" stroke-width="0.35" opacity="0.40"/>
<line x1="686" y1="552" x2="708" y2="552"    stroke="#3A3632" stroke-width="0.35" opacity="0.40"/>
<line x1="686" y1="566" x2="708" y2="566"    stroke="#3A3632" stroke-width="0.35" opacity="0.38"/>
<line x1="686" y1="580" x2="708" y2="580"    stroke="#3A3632" stroke-width="0.35" opacity="0.36"/>
<line x1="686" y1="594" x2="708" y2="594"    stroke="#3A3632" stroke-width="0.35" opacity="0.34"/>

<!-- First floor right window -->
<rect x="1217" y="496" width="52" height="112" stroke="#2A2826" stroke-width="1.2" fill="none"/>
<!-- Panes: vertical + 2 horizontals (6-pane) -->
<line x1="1243" y1="497" x2="1243" y2="607"  stroke="#2A2826" stroke-width="0.8"/>
<line x1="1218" y1="533" x2="1268" y2="533"  stroke="#2A2826" stroke-width="0.7"/>
<line x1="1218" y1="570" x2="1268" y2="570"  stroke="#2A2826" stroke-width="0.7"/>
<!-- Sill -->
<line x1="1203" y1="610" x2="1283" y2="610"  stroke="#2A2826" stroke-width="1.2"/>
<line x1="1207" y1="614" x2="1279" y2="614"  stroke="#3A3632" stroke-width="0.4" opacity="0.40"/>
<!-- Left shutter -->
<rect x="1191" y="496" width="24" height="112" stroke="#2A2826" stroke-width="0.9" fill="none"/>
<line x1="1192" y1="510" x2="1214" y2="510"  stroke="#3A3632" stroke-width="0.35" opacity="0.45"/>
<line x1="1192" y1="524" x2="1214" y2="524"  stroke="#3A3632" stroke-width="0.35" opacity="0.45"/>
<line x1="1192" y1="538" x2="1214" y2="538"  stroke="#3A3632" stroke-width="0.35" opacity="0.40"/>
<line x1="1192" y1="552" x2="1214" y2="552"  stroke="#3A3632" stroke-width="0.35" opacity="0.40"/>
<line x1="1192" y1="566" x2="1214" y2="566"  stroke="#3A3632" stroke-width="0.35" opacity="0.38"/>
<line x1="1192" y1="580" x2="1214" y2="580"  stroke="#3A3632" stroke-width="0.35" opacity="0.36"/>
<line x1="1192" y1="594" x2="1214" y2="594"  stroke="#3A3632" stroke-width="0.35" opacity="0.34"/>
<!-- Right shutter -->
<rect x="1271" y="496" width="24" height="112" stroke="#2A2826" stroke-width="0.9" fill="none"/>
<line x1="1272" y1="510" x2="1294" y2="510"  stroke="#3A3632" stroke-width="0.35" opacity="0.45"/>
<line x1="1272" y1="524" x2="1294" y2="524"  stroke="#3A3632" stroke-width="0.35" opacity="0.45"/>
<line x1="1272" y1="538" x2="1294" y2="538"  stroke="#3A3632" stroke-width="0.35" opacity="0.40"/>
<line x1="1272" y1="552" x2="1294" y2="552"  stroke="#3A3632" stroke-width="0.35" opacity="0.40"/>
<line x1="1272" y1="566" x2="1294" y2="566"  stroke="#3A3632" stroke-width="0.35" opacity="0.38"/>
<line x1="1272" y1="580" x2="1294" y2="580"  stroke="#3A3632" stroke-width="0.35" opacity="0.36"/>
<line x1="1272" y1="594" x2="1294" y2="594"  stroke="#3A3632" stroke-width="0.35" opacity="0.34"/>

<!-- ════════════════════════════════════════════════════════════════════
     PORCH
════════════════════════════════════════════════════════════════════ -->
<!-- Pediment triangle -->
<path d="M752,478 L950,436 L1148,478"         stroke="#2A2826" stroke-width="1.5" fill="none" stroke-linejoin="round"/>
<path d="M756,481 L950,440 L1144,481"         stroke="#2A2826" stroke-width="0.5" fill="none" stroke-linejoin="round" opacity="0.4"/>
<!-- Pediment base line -->
<line x1="752" y1="478" x2="1148" y2="478"    stroke="#2A2826" stroke-width="1.3"/>
<!-- Porch ceiling horizontal lines -->
<line x1="764" y1="488" x2="1136" y2="488"    stroke="#3A3632" stroke-width="0.6" opacity="0.55"/>
<line x1="764" y1="498" x2="1136" y2="498"    stroke="#3A3632" stroke-width="0.5" opacity="0.45"/>
<line x1="764" y1="508" x2="1136" y2="508"    stroke="#3A3632" stroke-width="0.4" opacity="0.38"/>
<!-- Columns (4) with internal lines -->
<rect x="776" y="478" width="18" height="182" stroke="#2A2826" stroke-width="1.1" fill="none"/>
<line x1="782" y1="480" x2="782" y2="658"     stroke="#3A3632" stroke-width="0.4" opacity="0.35"/>
<line x1="787" y1="480" x2="787" y2="658"     stroke="#3A3632" stroke-width="0.4" opacity="0.30"/>
<rect x="852" y="478" width="18" height="182" stroke="#2A2826" stroke-width="1.1" fill="none"/>
<line x1="858" y1="480" x2="858" y2="658"     stroke="#3A3632" stroke-width="0.4" opacity="0.35"/>
<rect x="1030" y="478" width="18" height="182" stroke="#2A2826" stroke-width="1.1" fill="none"/>
<line x1="1036" y1="480" x2="1036" y2="658"   stroke="#3A3632" stroke-width="0.4" opacity="0.35"/>
<rect x="1106" y="478" width="18" height="182" stroke="#2A2826" stroke-width="1.1" fill="none"/>
<line x1="1112" y1="480" x2="1112" y2="658"   stroke="#3A3632" stroke-width="0.4" opacity="0.35"/>
<!-- Porch floor lines -->
<line x1="764" y1="658" x2="1136" y2="658"    stroke="#2A2826" stroke-width="1.0"/>
<line x1="764" y1="648" x2="1136" y2="648"    stroke="#3A3632" stroke-width="0.4" opacity="0.35"/>
<line x1="764" y1="638" x2="1136" y2="638"    stroke="#3A3632" stroke-width="0.4" opacity="0.32"/>
<line x1="764" y1="628" x2="1136" y2="628"    stroke="#3A3632" stroke-width="0.35" opacity="0.28"/>

<!-- ════════════════════════════════════════════════════════════════════
     FRONT DOOR + FANLIGHT + STEPS
════════════════════════════════════════════════════════════════════ -->
<rect x="908" y="516" width="84" height="144" stroke="#2A2826" stroke-width="1.4" fill="none"/>
<!-- Door panels -->
<rect x="914" y="522" width="34" height="52"  stroke="#2A2826" stroke-width="0.8" fill="none"/>
<rect x="952" y="522" width="34" height="52"  stroke="#2A2826" stroke-width="0.8" fill="none"/>
<rect x="914" y="580" width="34" height="72"  stroke="#2A2826" stroke-width="0.8" fill="none"/>
<rect x="952" y="580" width="34" height="72"  stroke="#2A2826" stroke-width="0.8" fill="none"/>
<!-- Panel hatch -->
<line x1="915" y1="528" x2="947" y2="528"     stroke="#4A4642" stroke-width="0.3" opacity="0.50"/>
<line x1="915" y1="534" x2="947" y2="534"     stroke="#4A4642" stroke-width="0.3" opacity="0.50"/>
<line x1="915" y1="540" x2="947" y2="540"     stroke="#4A4642" stroke-width="0.3" opacity="0.45"/>
<line x1="915" y1="546" x2="947" y2="546"     stroke="#4A4642" stroke-width="0.3" opacity="0.45"/>
<line x1="953" y1="528" x2="985" y2="528"     stroke="#4A4642" stroke-width="0.3" opacity="0.50"/>
<line x1="953" y1="534" x2="985" y2="534"     stroke="#4A4642" stroke-width="0.3" opacity="0.50"/>
<line x1="953" y1="540" x2="985" y2="540"     stroke="#4A4642" stroke-width="0.3" opacity="0.45"/>
<line x1="953" y1="546" x2="985" y2="546"     stroke="#4A4642" stroke-width="0.3" opacity="0.45"/>
<!-- Fanlight -->
<path d="M908,516 Q950,484 992,516"            stroke="#2A2826" stroke-width="1.1" fill="none"/>
<line x1="950" y1="516" x2="950" y2="490"     stroke="#2A2826" stroke-width="0.7" opacity="0.7"/>
<line x1="950" y1="516" x2="928" y2="494"     stroke="#2A2826" stroke-width="0.6" opacity="0.6"/>
<line x1="950" y1="516" x2="972" y2="494"     stroke="#2A2826" stroke-width="0.6" opacity="0.6"/>
<line x1="950" y1="516" x2="912" y2="504"     stroke="#2A2826" stroke-width="0.5" opacity="0.5"/>
<line x1="950" y1="516" x2="988" y2="504"     stroke="#2A2826" stroke-width="0.5" opacity="0.5"/>
<!-- Door knob -->
<circle cx="974" cy="590" r="4"                stroke="#2A2826" stroke-width="0.9" fill="none"/>
<!-- Steps -->
<line x1="886" y1="660" x2="1014" y2="660"    stroke="#2A2826" stroke-width="1.2"/>
<line x1="876" y1="668" x2="1024" y2="668"    stroke="#2A2826" stroke-width="1.0"/>
<line x1="866" y1="676" x2="1034" y2="676"    stroke="#2A2826" stroke-width="0.9"/>

<!-- Foundation -->
<line x1="476" y1="662" x2="1424" y2="662"    stroke="#2A2826" stroke-width="1.3"/>
<line x1="476" y1="666" x2="1424" y2="666"    stroke="#3A3632" stroke-width="0.5" opacity="0.40"/>

<!-- ════════════════════════════════════════════════════════════════════
     LARGE TREE — LEFT
════════════════════════════════════════════════════════════════════ -->
<!-- Trunk -->
<path d="M198,660 Q192,610 196,560 Q200,510 194,460 Q190,408 196,356 Q200,304 194,252" stroke="#2A2826" stroke-width="2.4" fill="none" stroke-linecap="round"/>
<path d="M210,660 Q216,608 212,558 Q208,508 214,456 Q218,404 212,350 Q207,298 212,248" stroke="#2A2826" stroke-width="1.6" fill="none" stroke-linecap="round"/>
<!-- Bark texture -->
<line x1="198" y1="580" x2="210" y2="575"     stroke="#3A3632" stroke-width="0.5" opacity="0.5"/>
<line x1="198" y1="560" x2="210" y2="556"     stroke="#3A3632" stroke-width="0.5" opacity="0.5"/>
<line x1="197" y1="530" x2="211" y2="526"     stroke="#3A3632" stroke-width="0.45" opacity="0.45"/>
<line x1="196" y1="510" x2="212" y2="506"     stroke="#3A3632" stroke-width="0.45" opacity="0.45"/>
<line x1="196" y1="480" x2="212" y2="476"     stroke="#3A3632" stroke-width="0.4" opacity="0.40"/>
<!-- Root flare at base -->
<path d="M194,660 Q176,656 158,660"           stroke="#2A2826" stroke-width="1.2" fill="none"/>
<path d="M210,660 Q228,655 248,658"           stroke="#2A2826" stroke-width="1.0" fill="none"/>
<!-- Major boughs -->
<path d="M198,490 Q160,455 118,420"           stroke="#2A2826" stroke-width="1.8" fill="none" stroke-linecap="round"/>
<path d="M116,420 Q96,400 82,376"             stroke="#2A2826" stroke-width="1.2" fill="none" stroke-linecap="round"/>
<path d="M200,450 Q250,408 290,372"           stroke="#2A2826" stroke-width="1.6" fill="none" stroke-linecap="round"/>
<path d="M200,400 Q168,365 148,330"           stroke="#2A2826" stroke-width="1.4" fill="none" stroke-linecap="round"/>
<path d="M200,360 Q240,326 268,296"           stroke="#2A2826" stroke-width="1.2" fill="none" stroke-linecap="round"/>
<path d="M198,320 Q172,290 160,258"           stroke="#2A2826" stroke-width="1.0" fill="none" stroke-linecap="round"/>
<!-- Secondary branches -->
<path d="M118,420 Q100,395 86,374"           stroke="#2A2826" stroke-width="0.9" fill="none" stroke-linecap="round"/>
<path d="M148,440 Q124,414 110,388"           stroke="#2A2826" stroke-width="0.8" fill="none" stroke-linecap="round"/>
<path d="M82,376 Q70,354 62,334"              stroke="#3A3632" stroke-width="0.7" fill="none" stroke-linecap="round"/>
<path d="M148,330 Q132,305 122,278"           stroke="#2A2826" stroke-width="0.8" fill="none" stroke-linecap="round"/>
<path d="M148,330 Q168,308 182,284"           stroke="#2A2826" stroke-width="0.7" fill="none" stroke-linecap="round"/>
<path d="M268,296 Q286,274 300,250"           stroke="#2A2826" stroke-width="0.8" fill="none" stroke-linecap="round"/>
<path d="M268,296 Q252,272 244,248"           stroke="#3A3632" stroke-width="0.7" fill="none" stroke-linecap="round"/>
<path d="M160,258 Q148,234 140,210"           stroke="#3A3632" stroke-width="0.7" fill="none" stroke-linecap="round"/>
<path d="M200,340 Q184,316 176,290"           stroke="#3A3632" stroke-width="0.7" fill="none" stroke-linecap="round"/>
<!-- Foliage — short curved strokes in clusters -->
<path d="M78,366 Q70,356 64,346"             stroke="#2A2826" stroke-width="0.6" fill="none" stroke-linecap="round"/>
<path d="M72,362 Q80,350 88,340"             stroke="#2A2826" stroke-width="0.5" fill="none" stroke-linecap="round"/>
<path d="M86,348 Q78,336 72,326"             stroke="#3A3632" stroke-width="0.5" fill="none" stroke-linecap="round"/>
<path d="M90,354 Q100,342 108,332"           stroke="#3A3632" stroke-width="0.5" fill="none" stroke-linecap="round"/>
<path d="M64,332 Q56,322 52,310"             stroke="#3A3632" stroke-width="0.5" fill="none" stroke-linecap="round"/>
<path d="M108,390 Q96,376 90,362"            stroke="#2A2826" stroke-width="0.55" fill="none" stroke-linecap="round"/>
<path d="M100,376 Q112,366 122,354"          stroke="#3A3632" stroke-width="0.5" fill="none" stroke-linecap="round"/>
<path d="M122,408 Q110,394 106,378"          stroke="#3A3632" stroke-width="0.5" fill="none" stroke-linecap="round"/>
<path d="M138,418 Q126,406 120,392"          stroke="#3A3632" stroke-width="0.5" fill="none" stroke-linecap="round"/>
<path d="M118,278 Q108,264 102,250"          stroke="#3A3632" stroke-width="0.5" fill="none" stroke-linecap="round"/>
<path d="M126,268 Q136,254 142,240"          stroke="#3A3632" stroke-width="0.45" fill="none" stroke-linecap="round"/>
<path d="M136,252 Q126,238 120,224"          stroke="#4A4642" stroke-width="0.4" fill="none" stroke-linecap="round"/>
<path d="M180,278 Q172,262 166,248"          stroke="#3A3632" stroke-width="0.5" fill="none" stroke-linecap="round"/>
<path d="M186,272 Q196,258 202,244"          stroke="#3A3632" stroke-width="0.45" fill="none" stroke-linecap="round"/>
<path d="M298,244 Q308,230 314,216"          stroke="#3A3632" stroke-width="0.5" fill="none" stroke-linecap="round"/>
<path d="M302,250 Q290,238 284,224"          stroke="#3A3632" stroke-width="0.45" fill="none" stroke-linecap="round"/>
<path d="M244,244 Q234,230 228,216"          stroke="#4A4642" stroke-width="0.4" fill="none" stroke-linecap="round"/>
<path d="M248,240 Q258,226 264,212"          stroke="#4A4642" stroke-width="0.4" fill="none" stroke-linecap="round"/>
<path d="M140,204 Q130,190 124,176"          stroke="#4A4642" stroke-width="0.4" fill="none" stroke-linecap="round"/>
<path d="M196,238 Q186,222 180,208"          stroke="#4A4642" stroke-width="0.35" fill="none" stroke-linecap="round"/>
<path d="M200,246 Q210,230 216,216"          stroke="#4A4642" stroke-width="0.35" fill="none" stroke-linecap="round"/>
<!-- Top wispy ends -->
<path d="M160,210 Q152,196 148,180"          stroke="#4A4642" stroke-width="0.35" fill="none" stroke-linecap="round" opacity="0.7"/>
<path d="M164,206 Q172,192 176,178"          stroke="#4A4642" stroke-width="0.3"  fill="none" stroke-linecap="round" opacity="0.65"/>

<!-- ════════════════════════════════════════════════════════════════════
     ANCIENT JUNIPER — RIGHT
════════════════════════════════════════════════════════════════════ -->
<!-- Root flare — knotted, exposed roots -->
<path d="M1444,660 Q1420,654 1398,658"       stroke="#2A2826" stroke-width="1.3" fill="none"/>
<path d="M1448,660 Q1426,664 1408,666"       stroke="#2A2826" stroke-width="0.7" fill="none" opacity="0.46"/>
<path d="M1462,660 Q1488,653 1510,656"       stroke="#2A2826" stroke-width="1.1" fill="none"/>
<!-- Trunk LEFT EDGE — rises, sweeps dramatically right (the arc), then back up -->
<path d="M1444,660 C1432,632 1428,604 1434,578 C1440,552 1494,526 1548,506 C1602,486 1588,454 1556,430 C1524,406 1492,376 1472,342 C1452,308 1440,274 1436,240 C1432,206 1430,184 1428,172"
      stroke="#2A2826" stroke-width="2.2" fill="none" stroke-linecap="round"/>
<!-- Trunk RIGHT EDGE — parallel, gives visible thickness to the thick ancient trunk -->
<path d="M1460,660 C1448,632 1444,606 1450,578 C1456,550 1508,526 1560,508 C1612,490 1596,458 1566,434 C1536,410 1506,378 1486,344 C1466,310 1454,276 1450,242 C1446,208 1444,186 1442,174"
      stroke="#2A2826" stroke-width="1.4" fill="none" stroke-linecap="round"/>
<!-- Dead-wood channel — silvery exposed heartwood running up the trunk face -->
<path d="M1452,652 C1442,624 1438,598 1444,572 C1450,546 1502,524 1554,506 C1606,488 1592,458 1562,434 C1532,410 1504,380 1484,348 C1464,316 1454,282 1452,248"
      stroke="#9A9490" stroke-width="1.6" fill="none" stroke-linecap="round" opacity="0.55"/>
<!-- Live-bark spiral alongside the dead wood — the corkscrew grain -->
<path d="M1440,644 C1430,618 1428,592 1434,568 C1440,544 1492,520 1546,502 C1600,484 1586,452 1554,428 C1522,404 1492,374 1472,342 C1452,310 1442,276 1440,242"
      stroke="#2A2826" stroke-width="0.8" fill="none" stroke-linecap="round" opacity="0.42"/>
<!-- Bark striations — diagonal, follow the spiral of the grain -->
<line x1="1434" y1="635" x2="1456" y2="622" stroke="#3A3632" stroke-width="0.55" opacity="0.55"/>
<line x1="1433" y1="610" x2="1454" y2="598" stroke="#3A3632" stroke-width="0.50" opacity="0.52"/>
<line x1="1436" y1="582" x2="1458" y2="572" stroke="#3A3632" stroke-width="0.50" opacity="0.50"/>
<line x1="1494" y1="532" x2="1512" y2="522" stroke="#3A3632" stroke-width="0.48" opacity="0.50"/>
<line x1="1546" y1="512" x2="1562" y2="502" stroke="#3A3632" stroke-width="0.46" opacity="0.48"/>
<line x1="1572" y1="490" x2="1586" y2="478" stroke="#3A3632" stroke-width="0.45" opacity="0.46"/>
<line x1="1576" y1="462" x2="1588" y2="450" stroke="#3A3632" stroke-width="0.44" opacity="0.44"/>
<line x1="1558" y1="436" x2="1572" y2="424" stroke="#3A3632" stroke-width="0.42" opacity="0.44"/>
<line x1="1528" y1="410" x2="1542" y2="400" stroke="#3A3632" stroke-width="0.40" opacity="0.42"/>
<line x1="1490" y1="376" x2="1504" y2="366" stroke="#3A3632" stroke-width="0.38" opacity="0.40"/>
<line x1="1470" y1="342" x2="1482" y2="332" stroke="#3A3632" stroke-width="0.36" opacity="0.40"/>
<line x1="1454" y1="308" x2="1466" y2="298" stroke="#3A3632" stroke-width="0.35" opacity="0.38"/>
<line x1="1440" y1="274" x2="1452" y2="264" stroke="#3A3632" stroke-width="0.33" opacity="0.36"/>
<line x1="1436" y1="240" x2="1448" y2="230" stroke="#3A3632" stroke-width="0.32" opacity="0.34"/>
<!-- Boughs grow from key flex points of the arc -->
<!-- Right bough from apex of rightward sweep (y≈500) -->
<path d="M1562,504 Q1578,488 1588,474 Q1594,462 1596,452"
      stroke="#2A2826" stroke-width="1.2" fill="none" stroke-linecap="round"/>
<!-- Left lower bough from returning section (y≈430) -->
<path d="M1550,430 Q1522,416 1496,404 Q1472,392 1452,386"
      stroke="#2A2826" stroke-width="1.4" fill="none" stroke-linecap="round"/>
<!-- Left mid bough from upper trunk (y≈342) — widest spread -->
<path d="M1472,342 Q1446,324 1420,308 Q1396,294 1372,284 Q1348,276 1330,272"
      stroke="#2A2826" stroke-width="1.6" fill="none" stroke-linecap="round"/>
<!-- Left sub-bough from lower bough -->
<path d="M1452,386 Q1426,372 1402,360 Q1380,350 1360,344"
      stroke="#2A2826" stroke-width="1.0" fill="none" stroke-linecap="round"/>
<!-- Upper canopy boughs — compact cluster near crown -->
<path d="M1436,244 Q1416,228 1398,214 Q1382,202 1370,196"
      stroke="#2A2826" stroke-width="1.0" fill="none" stroke-linecap="round"/>
<path d="M1436,244 Q1454,228 1468,214 Q1480,202 1490,196"
      stroke="#2A2826" stroke-width="0.9" fill="none" stroke-linecap="round"/>
<path d="M1430,204 Q1414,190 1402,180"
      stroke="#2A2826" stroke-width="0.8" fill="none" stroke-linecap="round"/>
<path d="M1432,198 Q1448,182 1462,172"
      stroke="#2A2826" stroke-width="0.8" fill="none" stroke-linecap="round"/>

<!-- Foliage masses — compact irregular cloud clusters -->
<!-- Right bough foliage -->
<path d="M1594,448 Q1598,434 1596,422"       stroke="#2A2826" stroke-width="0.6" fill="none" stroke-linecap="round"/>
<path d="M1590,454 Q1596,440 1592,428"       stroke="#2A2826" stroke-width="0.55" fill="none" stroke-linecap="round"/>
<path d="M1582,442 Q1590,428 1586,416"       stroke="#3A3632" stroke-width="0.5" fill="none" stroke-linecap="round"/>
<path d="M1576,448 Q1566,436 1562,422"       stroke="#3A3632" stroke-width="0.5" fill="none" stroke-linecap="round"/>
<!-- Left lower foliage -->
<path d="M1450,382 Q1440,370 1434,356"       stroke="#2A2826" stroke-width="0.6" fill="none" stroke-linecap="round"/>
<path d="M1454,388 Q1442,378 1436,364"       stroke="#2A2826" stroke-width="0.55" fill="none" stroke-linecap="round"/>
<path d="M1442,376 Q1434,362 1428,348"       stroke="#3A3632" stroke-width="0.5" fill="none" stroke-linecap="round"/>
<!-- Left sub-bough foliage -->
<path d="M1358,340 Q1348,328 1342,314"       stroke="#2A2826" stroke-width="0.6" fill="none" stroke-linecap="round"/>
<path d="M1362,346 Q1350,336 1344,322"       stroke="#2A2826" stroke-width="0.55" fill="none" stroke-linecap="round"/>
<path d="M1350,334 Q1342,320 1336,306"       stroke="#3A3632" stroke-width="0.5" fill="none" stroke-linecap="round"/>
<path d="M1364,338 Q1374,324 1378,310"       stroke="#3A3632" stroke-width="0.5" fill="none" stroke-linecap="round"/>
<!-- Left mid bough foliage -->
<path d="M1328,268 Q1318,256 1312,242"       stroke="#2A2826" stroke-width="0.6" fill="none" stroke-linecap="round"/>
<path d="M1332,274 Q1320,264 1314,250"       stroke="#2A2826" stroke-width="0.55" fill="none" stroke-linecap="round"/>
<path d="M1322,262 Q1314,248 1308,234"       stroke="#3A3632" stroke-width="0.5" fill="none" stroke-linecap="round"/>
<path d="M1336,266 Q1346,252 1350,238"       stroke="#3A3632" stroke-width="0.5" fill="none" stroke-linecap="round"/>
<path d="M1308,238 Q1300,224 1296,210"       stroke="#3A3632" stroke-width="0.5" fill="none" stroke-linecap="round"/>
<path d="M1312,232 Q1304,218 1300,204"       stroke="#4A4642" stroke-width="0.45" fill="none" stroke-linecap="round"/>
<!-- Upper left canopy foliage -->
<path d="M1368,192 Q1358,180 1352,166"       stroke="#2A2826" stroke-width="0.6" fill="none" stroke-linecap="round"/>
<path d="M1372,198 Q1360,188 1354,174"       stroke="#2A2826" stroke-width="0.55" fill="none" stroke-linecap="round"/>
<path d="M1362,186 Q1354,172 1348,158"       stroke="#3A3632" stroke-width="0.5" fill="none" stroke-linecap="round"/>
<path d="M1376,190 Q1386,176 1390,162"       stroke="#3A3632" stroke-width="0.5" fill="none" stroke-linecap="round"/>
<path d="M1350,162 Q1342,148 1338,136"       stroke="#3A3632" stroke-width="0.5" fill="none" stroke-linecap="round"/>
<path d="M1354,156 Q1346,142 1342,130"       stroke="#4A4642" stroke-width="0.45" fill="none" stroke-linecap="round"/>
<!-- Upper right canopy foliage -->
<path d="M1488,192 Q1498,178 1502,164"       stroke="#2A2826" stroke-width="0.6" fill="none" stroke-linecap="round"/>
<path d="M1484,198 Q1472,186 1468,172"       stroke="#2A2826" stroke-width="0.55" fill="none" stroke-linecap="round"/>
<path d="M1490,186 Q1500,172 1504,158"       stroke="#3A3632" stroke-width="0.5" fill="none" stroke-linecap="round"/>
<path d="M1476,188 Q1466,174 1462,160"       stroke="#3A3632" stroke-width="0.5" fill="none" stroke-linecap="round"/>
<path d="M1460,156 Q1452,142 1448,130"       stroke="#3A3632" stroke-width="0.5" fill="none" stroke-linecap="round"/>
<path d="M1464,152 Q1474,138 1478,124"       stroke="#4A4642" stroke-width="0.45" fill="none" stroke-linecap="round"/>
<!-- Branch tips -->
<path d="M1398,176 Q1390,162 1386,150"       stroke="#3A3632" stroke-width="0.5" fill="none" stroke-linecap="round"/>
<path d="M1402,172 Q1412,158 1416,146"       stroke="#3A3632" stroke-width="0.45" fill="none" stroke-linecap="round"/>
<path d="M1460,168 Q1452,154 1448,142"       stroke="#3A3632" stroke-width="0.5" fill="none" stroke-linecap="round"/>
<!-- Top wisps -->
<path d="M1346,132 Q1338,118 1334,104"       stroke="#4A4642" stroke-width="0.35" fill="none" stroke-linecap="round" opacity="0.70"/>
<path d="M1350,128 Q1360,114 1364,100"       stroke="#4A4642" stroke-width="0.3"  fill="none" stroke-linecap="round" opacity="0.65"/>
<path d="M1476,120 Q1484,106 1486,92"        stroke="#4A4642" stroke-width="0.3"  fill="none" stroke-linecap="round" opacity="0.65"/>

<path d="M320,662 Q500,660 700,661 Q950,659 1200,661 Q1380,660 1560,663" stroke="#3A3632" stroke-width="0.5" fill="none" opacity="0.45"/>
<path d="M420,668 Q600,666 800,667 Q1000,666 1200,668 Q1360,667 1500,670" stroke="#4A4642" stroke-width="0.35" fill="none" opacity="0.35"/>
<line x1="726" y1="663" x2="728" y2="655"   stroke="#3A3632" stroke-width="0.4" opacity="0.38"/>
<!-- Distant ground lines fading to right -->
<path d="M800,656 Q1000,654 1200,655"        stroke="#4A4642" stroke-width="0.3" fill="none" opacity="0.28"/>
<path d="M900,652 Q1050,651 1200,652"        stroke="#4A4642" stroke-width="0.25" fill="none" opacity="0.22"/>

</svg>
